<svg xmlns="http://www.w3.org/2000/svg" viewBox="0 0 200 200">
  <!-- CD 배경 -->
  <circle cx="100" cy="100" r="95" fill="#111" stroke="#333" stroke-width="2"/>
  
  <!-- CD 반사 패턴 -->
  <circle cx="100" cy="100" r="80" fill="none" stroke="#444" stroke-width="1"/>
  <circle cx="100" cy="100" r="70" fill="none" stroke="#444" stroke-width="1"/>
  <circle cx="100" cy="100" r="60" fill="none" stroke="#444" stroke-width="1"/>
  <circle cx="100" cy="100" r="50" fill="none" stroke="#444" stroke-width="1"/>
  <circle cx="100" cy="100" r="40" fill="none" stroke="#444" stroke-width="1"/>
  
  <!-- CD 중앙 홀 -->
  <circle cx="100" cy="100" r="15" fill="#333" stroke="#555" stroke-width="2"/>
  <circle cx="100" cy="100" r="5" fill="#222"/>
  
  <!-- 음표 아이콘 -->
  <path d="M80,60 Q85,45 95,50 Q105,55 95,65 L95,90 Q100,85 105,90 Q110,95 105,100 Q100,105 95,100 L95,65" fill="#666" stroke="#777" stroke-width="1"/>
  <path d="M120,70 Q125,55 135,60 Q145,65 135,75 L135,100 Q140,95 145,100 Q150,105 145,110 Q140,115 135,110 L135,75" fill="#666" stroke="#777" stroke-width="1"/>
  
  <!-- 아티스트 명 -->
  <text x="100" y="135" fill="#777" font-family="Arial" font-size="10" text-anchor="middle">MOON DOLLAR</text>
  <text x="100" y="150" fill="#666" font-family="Arial" font-size="8" text-anchor="middle">INDIE FOLK</text>
  
  <!-- 무지개 반사 효과 (살짝 보이는) -->
  <path d="M60,40 A60,60 0 0,1 150,60" fill="none" stroke="url(#rainbow)" stroke-width="4" opacity="0.1"/>
  
  <!-- 그라데이션 정의 -->
  <defs>
    <linearGradient id="rainbow" x1="0%" y1="0%" x2="100%" y2="0%">
      <stop offset="0%" stop-color="#ff0000"/>
      <stop offset="16.6%" stop-color="#ff7f00"/>
      <stop offset="33.3%" stop-color="#ffff00"/>
      <stop offset="50%" stop-color="#00ff00"/>
      <stop offset="66.6%" stop-color="#0000ff"/>
      <stop offset="83.3%" stop-color="#4b0082"/>
      <stop offset="100%" stop-color="#8f00ff"/>
    </linearGradient>
  </defs>
</svg> 