<svg width="37" height="36" viewBox="0 0 37 36" fill="none" xmlns="http://www.w3.org/2000/svg">
<path d="M0.501563 36V7.2C0.501563 5.86666 0.818229 4.66666 1.45156 3.6C2.11823 2.5 2.9849 1.63333 4.05156 0.999998C5.15156 0.333332 6.36823 -1.43051e-06 7.70156 -1.43051e-06H29.2516C30.5849 -1.43051e-06 31.7849 0.333332 32.8516 0.999998C33.9516 1.63333 34.8349 2.5 35.5016 3.6C36.1682 4.66666 36.5016 5.86666 36.5016 7.2V36H29.2016V24.15H7.70156V36H0.501563ZM7.70156 16.95H29.2016V7.55C29.2016 7.45 29.1682 7.38333 29.1016 7.35C29.0682 7.28333 29.0016 7.25 28.9016 7.25H8.00156C7.90156 7.25 7.81823 7.28333 7.75156 7.35C7.71823 7.38333 7.70156 7.45 7.70156 7.55V16.95Z" fill="white"/>
</svg>
