<svg width="245" height="36" viewBox="0 0 245 36" fill="none" xmlns="http://www.w3.org/2000/svg">
<path d="M0.937109 36V7.2C0.937109 5.86666 1.25378 4.66666 1.88711 3.6C2.55378 2.5 3.42044 1.63333 4.48711 0.999998C5.58711 0.333332 6.80378 -1.43051e-06 8.13711 -1.43051e-06H29.6871C31.0204 -1.43051e-06 32.2204 0.333332 33.2871 0.999998C34.3871 1.63333 35.2704 2.5 35.9371 3.6C36.6038 4.66666 36.9371 5.86666 36.9371 7.2V36H29.6371V24.15H8.13711V36H0.937109ZM8.13711 16.95H29.6371V7.55C29.6371 7.45 29.6038 7.38333 29.5371 7.35C29.5038 7.28333 29.4371 7.25 29.3371 7.25H8.43711C8.33711 7.25 8.25378 7.28333 8.18711 7.35C8.15378 7.38333 8.13711 7.45 8.13711 7.55V16.95ZM49.734 36C48.4007 36 47.184 35.6833 46.084 35.05C45.0173 34.3833 44.1507 33.5167 43.484 32.45C42.8507 31.35 42.534 30.1333 42.534 28.8V-1.43051e-06H49.734V28.45C49.734 28.55 49.7507 28.6333 49.784 28.7C49.8507 28.7333 49.934 28.75 50.034 28.75H70.934C71.034 28.75 71.1007 28.7333 71.134 28.7C71.2007 28.6333 71.234 28.55 71.234 28.45V-1.43051e-06H78.534V28.8C78.534 30.1333 78.2007 31.35 77.534 32.45C76.8673 33.5167 75.984 34.3833 74.884 35.05C73.8173 35.6833 72.634 36 71.334 36H49.734ZM112.34 36L101.69 23.3H111.14L119.94 33.75V36H112.34ZM84.0402 36V0.0499979H112.79C114.124 0.0499979 115.324 0.383331 116.39 1.05C117.49 1.68333 118.374 2.55 119.04 3.65C119.707 4.75 120.04 5.95 120.04 7.25V16.75C120.04 18.05 119.707 19.25 119.04 20.35C118.374 21.4167 117.49 22.2833 116.39 22.95C115.324 23.5833 114.124 23.9 112.79 23.9L91.2402 23.95V36H84.0402ZM91.5402 16.65H112.44C112.54 16.65 112.607 16.6333 112.64 16.6C112.707 16.5333 112.74 16.4667 112.74 16.4V7.55C112.74 7.45 112.707 7.38333 112.64 7.35C112.607 7.28333 112.54 7.25 112.44 7.25H91.5402C91.4402 7.25 91.3569 7.28333 91.2902 7.35C91.2569 7.38333 91.2402 7.45 91.2402 7.55V16.4C91.2402 16.4667 91.2569 16.5333 91.2902 16.6C91.3569 16.6333 91.4402 16.65 91.5402 16.65ZM132.4 36C131.067 36 129.85 35.6833 128.75 35.05C127.683 34.3833 126.817 33.5167 126.15 32.45C125.517 31.35 125.2 30.1333 125.2 28.8V7.2C125.2 5.86666 125.517 4.66666 126.15 3.6C126.817 2.5 127.683 1.63333 128.75 0.999998C129.85 0.333332 131.067 -1.43051e-06 132.4 -1.43051e-06H154C155.3 -1.43051e-06 156.483 0.333332 157.55 0.999998C158.65 1.63333 159.533 2.5 160.2 3.6C160.867 4.66666 161.2 5.86666 161.2 7.2V28.8C161.2 30.1333 160.867 31.35 160.2 32.45C159.533 33.5167 158.65 34.3833 157.55 35.05C156.483 35.6833 155.3 36 154 36H132.4ZM132.7 28.75H153.6C153.7 28.75 153.767 28.7333 153.8 28.7C153.867 28.6333 153.9 28.55 153.9 28.45V7.55C153.9 7.45 153.867 7.38333 153.8 7.35C153.767 7.28333 153.7 7.25 153.6 7.25H132.7C132.6 7.25 132.517 7.28333 132.45 7.35C132.417 7.38333 132.4 7.45 132.4 7.55V28.45C132.4 28.55 132.417 28.6333 132.45 28.7C132.517 28.7333 132.6 28.75 132.7 28.75ZM195.006 36L184.356 23.3H193.806L202.606 33.75V36H195.006ZM166.706 36V0.0499979H195.456C196.79 0.0499979 197.99 0.383331 199.056 1.05C200.156 1.68333 201.04 2.55 201.706 3.65C202.373 4.75 202.706 5.95 202.706 7.25V16.75C202.706 18.05 202.373 19.25 201.706 20.35C201.04 21.4167 200.156 22.2833 199.056 22.95C197.99 23.5833 196.79 23.9 195.456 23.9L173.906 23.95V36H166.706ZM174.206 16.65H195.106C195.206 16.65 195.273 16.6333 195.306 16.6C195.373 16.5333 195.406 16.4667 195.406 16.4V7.55C195.406 7.45 195.373 7.38333 195.306 7.35C195.273 7.28333 195.206 7.25 195.106 7.25H174.206C174.106 7.25 174.023 7.28333 173.956 7.35C173.923 7.38333 173.906 7.45 173.906 7.55V16.4C173.906 16.4667 173.923 16.5333 173.956 16.6C174.023 16.6333 174.106 16.65 174.206 16.65ZM208.066 36V7.2C208.066 5.86666 208.383 4.66666 209.016 3.6C209.683 2.5 210.549 1.63333 211.616 0.999998C212.716 0.333332 213.933 -1.43051e-06 215.266 -1.43051e-06H236.816C238.149 -1.43051e-06 239.349 0.333332 240.416 0.999998C241.516 1.63333 242.399 2.5 243.066 3.6C243.733 4.66666 244.066 5.86666 244.066 7.2V36H236.766V24.15H215.266V36H208.066ZM215.266 16.95H236.766V7.55C236.766 7.45 236.733 7.38333 236.666 7.35C236.633 7.28333 236.566 7.25 236.466 7.25H215.566C215.466 7.25 215.383 7.28333 215.316 7.35C215.283 7.38333 215.266 7.45 215.266 7.55V16.95Z" fill="black"/>
</svg>
