<svg width="37" height="36" viewBox="0 0 37 36" fill="none" xmlns="http://www.w3.org/2000/svg">
<path d="M7.69688 36C6.36354 36 5.14688 35.6833 4.04688 35.05C2.98021 34.3833 2.11354 33.5167 1.44688 32.45C0.813542 31.35 0.496875 30.1333 0.496875 28.8V7.2C0.496875 5.86666 0.813542 4.66666 1.44688 3.6C2.11354 2.5 2.98021 1.63333 4.04688 0.999998C5.14688 0.333332 6.36354 -1.43051e-06 7.69688 -1.43051e-06H29.2969C30.5969 -1.43051e-06 31.7802 0.333332 32.8469 0.999998C33.9469 1.63333 34.8302 2.5 35.4969 3.6C36.1635 4.66666 36.4969 5.86666 36.4969 7.2V28.8C36.4969 30.1333 36.1635 31.35 35.4969 32.45C34.8302 33.5167 33.9469 34.3833 32.8469 35.05C31.7802 35.6833 30.5969 36 29.2969 36H7.69688ZM7.99688 28.75H28.8969C28.9969 28.75 29.0635 28.7333 29.0969 28.7C29.1635 28.6333 29.1969 28.55 29.1969 28.45V7.55C29.1969 7.45 29.1635 7.38333 29.0969 7.35C29.0635 7.28333 28.9969 7.25 28.8969 7.25H7.99688C7.89688 7.25 7.81354 7.28333 7.74688 7.35C7.71354 7.38333 7.69688 7.45 7.69688 7.55V28.45C7.69688 28.55 7.71354 28.6333 7.74688 28.7C7.81354 28.7333 7.89688 28.75 7.99688 28.75Z" fill="white"/>
</svg>
