<svg width="37" height="36" viewBox="0 0 37 36" fill="none" xmlns="http://www.w3.org/2000/svg">
<path d="M28.9701 36L18.3201 23.3H27.7701L36.5701 33.75V36H28.9701ZM0.670117 36V0.0499979H29.4201C30.7535 0.0499979 31.9535 0.383331 33.0201 1.05C34.1201 1.68333 35.0035 2.55 35.6701 3.65C36.3368 4.75 36.6701 5.95 36.6701 7.25V16.75C36.6701 18.05 36.3368 19.25 35.6701 20.35C35.0035 21.4167 34.1201 22.2833 33.0201 22.95C31.9535 23.5833 30.7535 23.9 29.4201 23.9L7.87012 23.95V36H0.670117ZM8.17012 16.65H29.0701C29.1701 16.65 29.2368 16.6333 29.2701 16.6C29.3368 16.5333 29.3701 16.4667 29.3701 16.4V7.55C29.3701 7.45 29.3368 7.38333 29.2701 7.35C29.2368 7.28333 29.1701 7.25 29.0701 7.25H8.17012C8.07012 7.25 7.98678 7.28333 7.92012 7.35C7.88678 7.38333 7.87012 7.45 7.87012 7.55V16.4C7.87012 16.4667 7.88678 16.5333 7.92012 16.6C7.98678 16.6333 8.07012 16.65 8.17012 16.65Z" fill="white"/>
</svg>
