<svg width="37" height="36" viewBox="0 0 37 36" fill="none" xmlns="http://www.w3.org/2000/svg">
<path d="M7.69688 36C6.36354 36 5.14688 35.6833 4.04688 35.05C2.98021 34.3833 2.11354 33.5167 1.44688 32.45C0.813542 31.35 0.496875 30.1333 0.496875 28.8V-1.43051e-06H7.69688V28.45C7.69688 28.55 7.71354 28.6333 7.74688 28.7C7.81354 28.7333 7.89688 28.75 7.99688 28.75H28.8969C28.9969 28.75 29.0635 28.7333 29.0969 28.7C29.1635 28.6333 29.1969 28.55 29.1969 28.45V-1.43051e-06H36.4969V28.8C36.4969 30.1333 36.1635 31.35 35.4969 32.45C34.8302 33.5167 33.9469 34.3833 32.8469 35.05C31.7802 35.6833 30.5969 36 29.2969 36H7.69688Z" fill="white"/>
</svg>
